<svg width="27" height="25" viewBox="0 0 27 25" fill="none" xmlns="http://www.w3.org/2000/svg">
<path d="M26.2004 4.12781H7.04497C6.92553 4.12781 6.68665 4.16514 6.64186 4.1726C5.69379 4.3443 5.2832 4.50854 5.18615 4.65784L5.17123 4.56079C5.09658 4.16514 5.02193 3.76202 4.94728 3.36637C4.90995 3.17228 4.87263 2.97072 4.8353 2.78409C4.78305 2.55267 4.72332 2.32125 4.62627 2.10476C4.25302 1.23135 3.51397 0.641609 2.79732 0.39526C2.61816 0.33554 2.44647 0.290747 2.26731 0.253422C2.17026 0.238491 2.08067 0.231024 1.99109 0.216094H1.797C1.53572 0.208629 1.30431 0.208637 1.11021 0.201172H0.498069C0.498069 0.201172 0.401029 0.238496 0.393564 0.245961C-0.330551 0.746123 0.109887 1.16417 0.408491 1.3284C0.453282 1.35826 0.468209 1.35825 0.498069 1.35825H1.10275C1.48347 1.37318 1.9687 1.31347 2.37928 1.47024C2.82718 1.61954 3.29002 1.98532 3.53637 2.51535C3.59609 2.64972 3.64835 2.79155 3.67821 2.93339C3.71554 3.12002 3.75286 3.30665 3.79018 3.50075C3.86483 3.88893 3.93949 4.28458 4.01414 4.67276C4.61135 7.81557 5.20856 10.9435 5.20856 10.9435C5.20856 10.9435 6.12676 14.7059 6.11929 14.5416C6.2238 14.9 6.32086 15.221 6.4179 15.4673C5.80576 15.4822 5.20109 15.7286 4.76065 16.1541C4.76065 16.1541 4.52177 16.3482 4.28288 16.811C4.16344 17.0424 4.05893 17.341 4.02907 17.6994C4.02907 17.7964 4.01414 17.8636 4.02907 17.9905C4.03654 18.0726 4.02907 18.1174 4.05147 18.2443C4.08133 18.4757 4.14104 18.6549 4.22316 18.8639C4.39486 19.267 4.69346 19.6552 5.10404 19.9314C5.50715 20.2076 6.05957 20.3644 6.55227 20.342C7.04497 20.342 7.56006 20.3271 8.07516 20.3196C7.76909 20.7526 7.60485 21.2602 7.61231 21.7903C7.61231 22.3651 7.8736 22.9697 8.1946 23.3355C8.5156 23.7162 8.88885 23.9253 9.15759 24.0372C9.42634 24.1418 9.59057 24.1716 9.59057 24.1716C9.6055 24.1716 9.76973 24.2089 10.1131 24.1865L10.2998 24.1641C10.3893 24.1492 10.4938 24.1268 10.5834 24.1044C10.7551 24.0522 10.9418 23.985 11.106 23.8879C11.8002 23.5222 12.0839 22.8055 12.0391 22.8727C12.278 22.3128 12.166 21.8276 12.0615 21.7529C12.278 21.7231 12.4422 21.5887 12.5169 21.4469C12.5393 21.4021 12.5393 21.3946 12.5318 21.3647C12.5318 21.3349 12.5094 21.1482 12.3974 20.8646C12.3303 20.6929 12.2183 20.4839 12.0615 20.2674C14.3906 20.23 16.1375 20.2002 15.921 20.1927C17.5409 20.1554 18.9966 20.1106 20.0567 20.0509C19.6087 20.5286 19.3624 21.1482 19.3773 21.7977C19.3773 22.3725 19.6386 22.9772 19.9596 23.343C20.2806 23.7237 20.6539 23.9327 20.9226 24.0447C21.1913 24.1567 21.3556 24.1791 21.3556 24.1791C21.3705 24.1791 21.5347 24.2164 21.8781 24.194L22.0648 24.1716C22.1543 24.1567 22.2589 24.1343 22.3484 24.1119C22.5201 24.0596 22.7068 23.9925 22.871 23.8954C23.5652 23.5296 23.8489 22.813 23.8041 22.8801C24.043 22.3203 23.931 21.835 23.8265 21.7604C24.043 21.7305 24.2072 21.5962 24.2819 21.4543C24.3043 21.4095 24.3043 21.4021 24.2968 21.3722C24.2968 21.3423 24.2744 21.1557 24.1625 20.872C24.0579 20.5884 23.8414 20.2002 23.4533 19.8717C23.0725 19.5432 22.4977 19.2894 21.8707 19.2894C21.4004 19.2894 20.8853 19.4387 20.4672 19.7224C19.549 19.6702 18.1381 19.6179 16.1151 19.5656C14.4802 19.5283 12.6662 19.4835 10.9119 19.4387C10.6655 19.3492 10.3968 19.2969 10.1131 19.2969C9.88917 19.2969 9.6503 19.3417 9.41888 19.4089C8.6873 19.3939 7.97811 19.3715 7.31371 19.3566C6.99271 19.3492 6.61946 19.3566 6.38057 19.3342C6.15662 19.3193 5.9476 19.2372 5.78336 19.1327C5.43997 18.9162 5.25334 18.5803 5.18615 18.304C5.16376 18.2294 5.16376 18.1846 5.1563 18.1249V17.9905C5.1563 17.9905 5.14883 17.9159 5.1563 17.9606V17.9159C5.16376 17.8039 5.18616 17.7068 5.20856 17.6322C5.25335 17.4829 5.29814 17.4082 5.29814 17.4082C5.50716 16.9603 5.98492 16.6543 6.48509 16.6543H6.53735L24.1774 15.2434C24.4237 15.221 24.6402 15.0418 24.6999 14.788L26.7827 4.837C26.7827 4.837 26.7976 4.75488 26.7976 4.71755C26.7976 4.39655 26.5364 4.13527 26.2154 4.13527L26.2004 4.12781ZM22.6844 20.7601C23.1099 21.1184 23.1323 21.5588 23.1397 21.5439C23.1397 21.5514 23.1845 21.5738 23.192 21.5738C23.3861 21.7156 23.5727 21.7753 23.7295 21.7753C23.6474 21.8574 23.5578 22.1336 23.2592 22.5442C22.9904 22.8652 22.5649 23.0742 22.229 23.1116C22.1394 23.1265 22.0722 23.119 22.02 23.119C21.9602 23.119 21.8035 23.119 21.8184 23.1041C21.7214 23.0892 21.6616 23.0668 21.6616 23.0668C21.6616 23.0668 21.5721 23.0668 21.4228 23.0145C21.2735 22.9623 21.0644 22.8652 20.8853 22.6637C20.6986 22.4696 20.5493 22.171 20.5344 21.835C20.512 21.4991 20.6389 21.1333 20.8853 20.872C21.1391 20.6033 21.4676 20.454 21.8483 20.454C22.1469 20.454 22.4828 20.5809 22.6844 20.7601ZM11.5016 22.5517C11.2329 22.8727 10.8074 23.0817 10.4714 23.119C10.3819 23.134 10.3147 23.1265 10.2624 23.1265C10.2027 23.1265 10.0459 23.1265 10.0609 23.1116C9.96383 23.0966 9.9041 23.0742 9.9041 23.0742C9.9041 23.0742 9.81452 23.0742 9.66522 23.022C9.51591 22.9697 9.3069 22.8727 9.12774 22.6711C8.94111 22.477 8.79181 22.1784 8.77688 21.8425C8.75448 21.4991 8.88139 21.1408 9.12774 20.8795C9.38155 20.6108 9.71001 20.4615 10.0907 20.4615C10.3893 20.4615 10.7253 20.5884 10.9268 20.7675C11.3523 21.1258 11.3747 21.5663 11.3822 21.5514C11.3822 21.5588 11.427 21.5812 11.4345 21.5812C11.6285 21.7231 11.8152 21.7828 11.9719 21.7828C11.8898 21.8649 11.8002 22.1411 11.5016 22.5517ZM23.6399 14.1161L6.81355 15.4598C6.81355 15.221 6.79115 14.9074 6.75383 14.4968C6.64932 13.0188 6.37311 10.9285 6.37311 10.9285C6.37311 10.9285 5.80576 7.94249 5.21602 4.84447C5.42504 5.03109 6.12676 5.1804 6.70904 5.26251C6.87327 5.29237 6.91806 5.29237 7.04497 5.29237H25.4838L23.6399 14.1161Z" fill="#EAEAEA"/>
</svg>
