<svg width="23" height="27" viewBox="0 0 23 27" fill="none" xmlns="http://www.w3.org/2000/svg">
<path d="M7.55726 10.9069C8.00119 11.6086 8.7029 12.1671 9.45473 12.4606C9.83422 12.6253 10.2137 12.7041 10.6004 12.7685C10.9942 12.8258 11.3236 12.833 11.746 12.8473C12.0969 12.8115 12.3904 12.8401 12.7699 12.7542C12.9561 12.7184 13.1351 12.6826 13.3213 12.6396C13.5003 12.5967 13.6578 12.5179 13.8296 12.4606C14.1662 12.3604 14.4597 12.1456 14.7462 11.9737C15.0039 11.7518 15.2689 11.5513 15.455 11.3007C16.2641 10.3197 16.4503 9.31013 16.5863 8.66571C16.6937 8.00697 16.7081 7.62747 16.7081 7.62747C16.7081 7.62747 16.7367 7.16921 16.7296 6.50331C16.7224 6.17394 16.7081 5.79445 16.7009 5.38631V5.23594L16.6866 5.05694L16.6651 4.74188C16.6221 4.50559 16.5935 4.24783 16.5219 4.02586C16.2856 3.10218 15.7414 2.32172 15.2617 1.84914C14.7891 1.37657 14.4168 1.18324 14.4812 1.22621C13.844 0.810911 13.1781 0.610422 12.6625 0.55314C12.147 0.495858 11.7961 0.553138 11.6672 0.5961C11.6672 0.581779 11.6672 0.560293 11.6529 0.545973C11.5312 0.381287 11.2233 0.22376 10.8796 0.20944C10.7865 0.195119 10.7579 0.20228 10.6863 0.20944C10.6433 0.22376 10.1922 0.288213 9.51917 0.588943C8.85327 0.896834 7.95107 1.50545 7.30665 2.57233C6.98444 3.10219 6.73383 3.73229 6.63359 4.434C6.53335 5.16434 6.57631 5.79445 6.56915 6.49615C6.60495 7.87092 6.66939 9.47482 7.57158 10.8997L7.55726 10.9069ZM7.70763 4.67744C7.78639 4.1261 7.97255 3.61773 8.22316 3.19528C8.72438 2.34321 9.44041 1.8563 9.96311 1.61285C10.5001 1.36941 10.8581 1.31929 10.8796 1.31213C10.9226 1.2978 11.0157 1.25484 11.03 1.24052C11.4524 1.01139 11.6529 0.839552 11.6816 0.689187C11.7532 0.717828 11.8677 0.746468 12.0539 0.78943C12.4549 0.896834 13.1781 1.0472 14.0445 1.68446C14.5385 2.07112 14.9896 2.60813 15.2903 3.20959C15.4335 3.51748 15.5481 3.82537 15.6125 4.14042C15.6483 4.29795 15.677 4.44832 15.6842 4.59152C15.7056 4.72757 15.7128 4.88509 15.7056 5.04978C15.7056 5.64408 15.677 6.23838 15.6555 6.61788L15.6125 7.23366C15.6125 7.23366 15.6054 7.59167 15.5195 8.18598C15.4335 8.77312 15.2689 9.63234 14.739 10.42C14.4598 10.7923 14.0803 11.1217 13.6077 11.3651C13.3499 11.451 13.0993 11.5871 12.8201 11.6157C12.6768 11.6372 12.5551 11.6802 12.3976 11.7017C12.2257 11.7088 12.0611 11.7231 11.8892 11.7303C10.6505 11.8019 9.2614 11.4654 8.55253 10.42C7.82219 9.38173 7.68614 7.92104 7.6575 6.58923C7.6575 5.93049 7.62887 5.19298 7.70047 4.67744H7.70763ZM22.9661 25.5281L22.1212 21.4754C22.1212 21.4754 21.6558 19.4992 21.219 17.6518V17.6232L21.2047 17.5946C21.04 17.1649 20.8324 16.7496 20.5818 16.3916C20.3312 16.0336 20.0304 15.7544 19.7655 15.5539C19.2142 15.1601 18.8132 15.067 18.8919 15.0956C18.1258 14.8164 17.4169 14.7734 16.8871 14.7662C16.3501 14.7662 15.9777 14.8092 15.856 14.8522C15.8274 14.8665 15.813 14.8736 15.813 14.888C15.6126 14.8092 15.2903 15.0097 15.0755 15.1959C15.0182 15.2388 15.0039 15.2603 14.9753 15.3033L11.7603 20.5446L7.94391 14.623C7.84367 14.4584 7.66467 14.3581 7.46418 14.3653C6.48322 14.4154 5.46647 14.4655 4.44255 14.8665C3.93417 15.067 3.44727 15.382 3.06062 15.7973C2.67397 16.2055 2.38755 16.6924 2.18707 17.1793L2.05103 17.5659V17.5802C2.05103 17.5802 2.03671 17.616 2.02955 17.6375C1.79326 18.955 1.01279 23.3586 1.07723 23.1437C0.855263 24.5758 0.73354 25.7143 0.876745 25.6642C0.876745 25.9004 1.32068 26.0795 1.66437 26.1725C1.75029 26.2012 1.77177 26.2012 1.83622 26.2012H22.4434C22.4792 26.2012 22.5222 26.2012 22.558 26.1869C22.8587 26.1224 23.0521 25.8288 22.9876 25.5281H22.9661ZM1.81474 25.0842C1.75029 25.0842 1.63573 25.12 1.60709 25.1271C1.30636 25.2345 1.11303 25.3348 0.991306 25.4279C1.12735 25.1128 1.335 24.4612 1.63573 23.3442C2.23003 21.2678 2.94606 18.3679 3.06062 17.9168L3.0821 17.8595C3.38999 16.9788 3.91985 16.2985 4.71464 15.9548C5.42351 15.6398 6.2899 15.5467 7.16345 15.5037L11.2806 21.8979C11.3236 21.9623 11.388 22.0268 11.4596 22.0697C11.7245 22.2272 12.0611 22.1485 12.2257 21.8835L15.9061 15.8833C15.9276 15.8403 15.9562 15.7329 15.9562 15.7114C16.0278 15.2818 15.9777 15.0527 15.8846 14.9452C15.9634 14.9739 16.078 15.0025 16.2713 15.0383C16.7009 15.1386 17.51 15.1887 18.5554 15.6255C18.9922 15.826 19.4003 16.1339 19.7011 16.5348C20.0018 16.9215 20.2023 17.3941 20.3455 17.8595C20.6748 19.7927 20.9469 21.3608 20.9469 21.3608L21.7203 25.0913H1.79326L1.81474 25.0842Z" fill="#EAEAEA"/>
</svg>
